<svg width="926" height="771" viewBox="0 0 926 771" fill="none" xmlns="http://www.w3.org/2000/svg">
<g id="scene">
<g id="Group" opacity="0.7">
<path id="Vector" opacity="0.7" d="M584.59 346.63C584.67 322.265 578.837 298.244 567.59 276.63C562.25 266.48 557.38 260.17 553.59 256.3C552.161 254.784 550.294 253.753 548.25 253.349C546.207 252.946 544.088 253.191 542.19 254.05C540.673 254.585 539.303 255.469 538.19 256.63C533.12 261.88 528.54 268.82 524.54 276.21C512.708 298.329 506.566 323.045 506.67 348.13V363.19H497.01V188.19C497.01 151.51 488.8 115.32 472.72 83.19C465.1 67.98 458.15 58.53 452.8 52.72C451.504 51.243 449.907 50.0597 448.117 49.249C446.327 48.4383 444.385 48.0189 442.42 48.0189C440.455 48.0189 438.513 48.4383 436.723 49.249C434.932 50.0597 433.336 51.243 432.04 52.72C424.8 60.59 418.27 70.99 412.56 82.05C395.65 114.84 387.06 152.05 387.06 189.82V363.19H378.71V347.41C378.814 322.325 372.672 297.609 360.84 275.49C356.84 268.11 352.26 261.17 347.19 255.91C345.731 254.373 343.821 253.339 341.736 252.958C339.651 252.577 337.499 252.868 335.59 253.79L335.94 253.98C334.716 254.521 333.608 255.296 332.68 256.26C328.93 260.13 324.06 266.44 318.68 276.59C307.433 298.204 301.599 322.225 301.68 346.59V608.23H331.48L328.23 629.74V694.05H352.59V629.74L349.34 608.23H378.71V369.96H387.06V607.16H410.86L407.44 629.73V694.05H431.81V629.74L428.39 607.17H460.46L457.04 629.74V694.05H481.41V629.74L477.99 607.17H496.99V369.96H506.65V608.59H514.48V608.23H540.37L537.12 629.74V694.05H561.49V629.74L558.24 608.23H584.59V346.63Z" fill="url(#paint0_linear_1_2)"/>
</g>
<path id="Vector_2" d="M357.44 617.2H334.37L338.49 589.19H353.32L357.44 617.2Z" fill="#535461"/>
<g id="Group_2" opacity="0.1">
<path id="Vector_3" opacity="0.1" d="M337.34 600.31H354.47L353.32 592.48H338.49L337.34 600.31Z" fill="black"/>
</g>
<path id="Vector_4" d="M555.2 617.2H532.13L536.25 589.19H551.08L555.2 617.2Z" fill="#535461"/>
<g id="Group_3" opacity="0.1">
<path id="Vector_5" opacity="0.1" d="M535.1 600.31H552.23L551.08 592.48H536.25L535.1 600.31Z" fill="black"/>
</g>
<path id="Vector_6" d="M432.43 617.2H409.35L413.47 589.19H428.31L432.43 617.2Z" fill="#535461"/>
<g id="Group_4" opacity="0.1">
<path id="Vector_7" opacity="0.1" d="M412.32 600.31H429.46L428.31 592.48H413.47L412.32 600.31Z" fill="black"/>
</g>
<path id="Vector_8" d="M479.39 617.2H456.32L460.44 589.19H475.27L479.39 617.2Z" fill="#535461"/>
<g id="Group_5" opacity="0.1">
<path id="Vector_9" opacity="0.1" d="M459.29 600.31H476.43L475.27 592.48H460.44L459.29 600.31Z" fill="black"/>
</g>
<path id="Vector_10" d="M522.24 357.64H357.44V364.23H522.24V357.64Z" fill="#535461"/>
<path id="Vector_11" d="M547.72 253.51C546.849 252.549 545.787 251.78 544.601 251.255C543.415 250.729 542.132 250.457 540.835 250.457C539.538 250.457 538.255 250.729 537.069 251.255C535.883 251.78 534.821 252.549 533.95 253.51C529.15 258.62 524.82 265.38 521.03 272.57C509.815 294.192 504.012 318.212 504.12 342.57V596.26H577.05V341.52C577.142 317.83 571.621 294.456 560.94 273.31C555.88 263.43 551.27 257.28 547.72 253.51Z" fill="#E0E0E0"/>
<path id="Vector_12" d="M338.59 253.51C339.461 252.549 340.523 251.78 341.709 251.255C342.895 250.729 344.178 250.457 345.475 250.457C346.772 250.457 348.055 250.729 349.241 251.255C350.427 251.78 351.489 252.549 352.36 253.51C357.16 258.62 361.49 265.38 365.28 272.57C376.495 294.192 382.298 318.212 382.19 342.57V596.26H309.24V341.52C309.148 317.83 314.669 294.456 325.35 273.31C330.4 263.43 335.01 257.28 338.59 253.51Z" fill="#E0E0E0"/>
<path id="Vector_13" d="M309.65 346.93L326.95 347.01V368.35H309.65V346.93Z" fill="#535461"/>
<path id="Vector_14" d="M364.86 346.93L382.16 347.01V368.35H364.86V346.93Z" fill="#535461"/>
<path id="Vector_15" d="M504.11 346.93L521.42 347.01V368.35H504.11V346.93Z" fill="#535461"/>
<path id="Vector_16" d="M559.32 346.93L576.63 347.01V368.35H559.32V346.93Z" fill="#535461"/>
<g id="Group_6" opacity="0.1">
<path id="Vector_17" opacity="0.1" d="M365.25 272.24C361.47 265.05 357.13 258.29 352.33 253.18C350.974 251.682 349.164 250.669 347.178 250.295C345.192 249.921 343.138 250.207 341.33 251.11C342.372 251.63 343.313 252.331 344.11 253.18C348.91 258.29 353.24 265.05 357.03 272.24C368.245 293.862 374.048 317.882 373.94 342.24V595.91H382.18V342.27C382.287 317.901 376.477 293.869 365.25 272.24V272.24Z" fill="black"/>
</g>
<g id="Group_7" opacity="0.1">
<path id="Vector_18" opacity="0.1" d="M527.59 272.94C531.37 265.75 535.71 258.99 540.51 253.88C541.409 252.913 542.494 252.137 543.7 251.6C541.917 250.819 539.934 250.619 538.032 251.029C536.129 251.438 534.404 252.435 533.1 253.88C528.3 258.99 523.97 265.75 520.18 272.94C508.965 294.562 503.162 318.582 503.27 342.94V596.61H510.69V342.98C510.573 318.61 516.372 294.575 527.59 272.94V272.94Z" fill="black"/>
</g>
<path id="Vector_19" d="M357.44 617.2H334.37V679.82H357.44V617.2Z" fill="url(#paint1_linear_1_2)"/>
<path id="fire2" d="M432.42 617.2H409.35V679.82H432.42V617.2Z" fill="url(#paint2_linear_1_2)"/>
<path id="fire" d="M357.44 617.2H334.37V679.82H357.44V617.2Z" fill="url(#paint3_linear_1_2)"/>
<path id="fire_2" d="M555.2 617.2H532.13V679.82H555.2V617.2Z" fill="url(#paint4_linear_1_2)"/>
<path id="big-rocket" d="M452.29 54.61C451.085 53.1775 449.581 52.0259 447.884 51.2359C446.186 50.4459 444.337 50.0365 442.465 50.0365C440.593 50.0365 438.744 50.4459 437.046 51.2359C435.349 52.0259 433.845 53.1775 432.64 54.61C425.79 62.27 419.64 72.4 414.2 83.18C398.2 115.12 390.06 151.37 390.06 188.13V595.22H494.15V186.49C494.15 150.77 486.38 115.49 471.15 84.28C463.94 69.47 457.36 60.27 452.29 54.61Z" fill="#EEEEEE"/>
<path id="window" d="M457.54 99.83H425.23C419.155 99.83 414.23 104.755 414.23 110.83V113.72C414.23 119.795 419.155 124.72 425.23 124.72H457.54C463.615 124.72 468.54 119.795 468.54 113.72V110.83C468.54 104.755 463.615 99.83 457.54 99.83Z" fill="#6C63FF"/>
<g id="Group_8" opacity="0.1">
<path id="Vector_20" opacity="0.1" d="M493.59 202.05H390.59V206.05H493.59V202.05Z" fill="black"/>
</g>
</g>
<defs>
<linearGradient id="paint0_linear_1_2" x1="443.14" y1="694.05" x2="443.14" y2="48.05" gradientUnits="userSpaceOnUse">
<stop stop-color="#808080" stop-opacity="0.25"/>
<stop offset="0.54" stop-color="#808080" stop-opacity="0.12"/>
<stop offset="1" stop-color="#808080" stop-opacity="0.1"/>
</linearGradient>
<linearGradient id="paint1_linear_1_2" x1="345.9" y1="617.2" x2="345.9" y2="679.83" gradientUnits="userSpaceOnUse">
<stop stop-color="#E0E0E0"/>
<stop offset="0.31" stop-color="#FCCC63"/>
<stop offset="0.77" stop-color="#F55F44"/>
</linearGradient>
<linearGradient id="paint2_linear_1_2" x1="10119.3" y1="39266.3" x2="10119.3" y2="43188.1" gradientUnits="userSpaceOnUse">
<stop stop-color="#E0E0E0"/>
<stop offset="0.31" stop-color="#FCCC63"/>
<stop offset="0.77" stop-color="#F55F44"/>
</linearGradient>
<linearGradient id="paint3_linear_1_2" x1="345.9" y1="617.2" x2="345.9" y2="679.83" gradientUnits="userSpaceOnUse">
<stop stop-color="#E0E0E0"/>
<stop offset="0.31" stop-color="#FCCC63"/>
<stop offset="0.77" stop-color="#F55F44"/>
</linearGradient>
<linearGradient id="paint4_linear_1_2" x1="13074.6" y1="39266.3" x2="13074.6" y2="43188.1" gradientUnits="userSpaceOnUse">
<stop stop-color="#E0E0E0"/>
<stop offset="0.31" stop-color="#FCCC63"/>
<stop offset="0.77" stop-color="#F55F44"/>
</linearGradient>
</defs>
</svg>
